<svg width="56" height="26" viewBox="0 0 56 26" fill="none" xmlns="http://www.w3.org/2000/svg">
<path d="M2.5 1C2.5 0.447715 2.94772 0 3.5 0H54.5C55.0523 0 55.5 0.447715 55.5 1V25C55.5 25.5523 55.0523 26 54.5 26H4C3.44772 26 3 25.5523 3 25V15.0352C3 14.7008 2.8329 14.3886 2.5547 14.2031L1.1379 13.2586C0.57476 12.8832 0.539406 12.0685 1.0679 11.6457L2.12469 10.8002C2.36191 10.6105 2.5 10.3232 2.5 10.0194V1Z" fill="#F7F7F7"/>
<path d="M3 1C3 0.723858 3.22386 0.5 3.5 0.5H54.5C54.7761 0.5 55 0.723858 55 1V25C55 25.2761 54.7761 25.5 54.5 25.5H4C3.72386 25.5 3.5 25.2761 3.5 25V15.0352C3.5 14.5337 3.24935 14.0653 2.83205 13.7871L1.41525 12.8426C1.13368 12.6549 1.116 12.2475 1.38025 12.0361L2.43704 11.1907C2.79287 10.906 3 10.4751 3 10.0194V1Z" stroke="black" stroke-opacity="0.1"/>
<path opacity="0.9" d="M22.2715 17H21.1816V9.77539L18.9961 10.5781V9.59375L22.1016 8.42773H22.2715V17ZM29.6016 13.25C29.375 13.5195 29.1035 13.7363 28.7871 13.9004C28.4746 14.0645 28.1309 14.1465 27.7559 14.1465C27.2637 14.1465 26.834 14.0254 26.4668 13.7832C26.1035 13.541 25.8223 13.2012 25.623 12.7637C25.4238 12.3223 25.3242 11.8359 25.3242 11.3047C25.3242 10.7344 25.4316 10.2207 25.6465 9.76367C25.8652 9.30664 26.1738 8.95703 26.5723 8.71484C26.9707 8.47266 27.4355 8.35156 27.9668 8.35156C28.8105 8.35156 29.4746 8.66797 29.959 9.30078C30.4473 9.92969 30.6914 10.7891 30.6914 11.8789V12.1953C30.6914 13.8555 30.3633 15.0684 29.707 15.834C29.0508 16.5957 28.0605 16.9863 26.7363 17.0059H26.5254V16.0918H26.7539C27.6484 16.0762 28.3359 15.8438 28.8164 15.3945C29.2969 14.9414 29.5586 14.2266 29.6016 13.25ZM27.9316 13.25C28.2949 13.25 28.6289 13.1387 28.9336 12.916C29.2422 12.6934 29.4668 12.418 29.6074 12.0898V11.6562C29.6074 10.9453 29.4531 10.3672 29.1445 9.92188C28.8359 9.47656 28.4453 9.25391 27.9727 9.25391C27.4961 9.25391 27.1133 9.4375 26.8242 9.80469C26.5352 10.168 26.3906 10.6484 26.3906 11.2461C26.3906 11.8281 26.5293 12.3086 26.8066 12.6875C27.0879 13.0625 27.4629 13.25 27.9316 13.25ZM37.5352 13.3613C37.5352 14.6309 37.3184 15.5742 36.8848 16.1914C36.4512 16.8086 35.7734 17.1172 34.8516 17.1172C33.9414 17.1172 33.2676 16.8164 32.8301 16.2148C32.3926 15.6094 32.166 14.707 32.1504 13.5078V12.0605C32.1504 10.8066 32.3672 9.875 32.8008 9.26562C33.2344 8.65625 33.9141 8.35156 34.8398 8.35156C35.7578 8.35156 36.4336 8.64648 36.8672 9.23633C37.3008 9.82227 37.5234 10.7285 37.5352 11.9551V13.3613ZM36.4512 11.8789C36.4512 10.9609 36.3223 10.293 36.0645 9.875C35.8066 9.45312 35.3984 9.24219 34.8398 9.24219C34.2852 9.24219 33.8809 9.45117 33.627 9.86914C33.373 10.2871 33.2422 10.9297 33.2344 11.7969V13.5312C33.2344 14.4531 33.3672 15.1348 33.6328 15.5762C33.9023 16.0137 34.3086 16.2324 34.8516 16.2324C35.3867 16.2324 35.7832 16.0254 36.041 15.6113C36.3027 15.1973 36.4395 14.5449 36.4512 13.6543V11.8789ZM44.2734 13.3613C44.2734 14.6309 44.0566 15.5742 43.623 16.1914C43.1895 16.8086 42.5117 17.1172 41.5898 17.1172C40.6797 17.1172 40.0059 16.8164 39.5684 16.2148C39.1309 15.6094 38.9043 14.707 38.8887 13.5078V12.0605C38.8887 10.8066 39.1055 9.875 39.5391 9.26562C39.9727 8.65625 40.6523 8.35156 41.5781 8.35156C42.4961 8.35156 43.1719 8.64648 43.6055 9.23633C44.0391 9.82227 44.2617 10.7285 44.2734 11.9551V13.3613ZM43.1895 11.8789C43.1895 10.9609 43.0605 10.293 42.8027 9.875C42.5449 9.45312 42.1367 9.24219 41.5781 9.24219C41.0234 9.24219 40.6191 9.45117 40.3652 9.86914C40.1113 10.2871 39.9805 10.9297 39.9727 11.7969V13.5312C39.9727 14.4531 40.1055 15.1348 40.3711 15.5762C40.6406 16.0137 41.0469 16.2324 41.5898 16.2324C42.125 16.2324 42.5215 16.0254 42.7793 15.6113C43.041 15.1973 43.1777 14.5449 43.1895 13.6543V11.8789Z" fill="#BABABE"/>
</svg>
