<svg width="56" height="26" viewBox="0 0 56 26" fill="none" xmlns="http://www.w3.org/2000/svg">
<path d="M2.5 1C2.5 0.447715 2.94772 0 3.5 0H54.5C55.0523 0 55.5 0.447715 55.5 1V25C55.5 25.5523 55.0523 26 54.5 26H4C3.44772 26 3 25.5523 3 25V15.0352C3 14.7008 2.8329 14.3886 2.5547 14.2031L1.1379 13.2586C0.57476 12.8832 0.539406 12.0685 1.0679 11.6457L2.12469 10.8002C2.36191 10.6105 2.5 10.3232 2.5 10.0194V1Z" fill="#F7F7F7"/>
<path d="M3 1C3 0.723858 3.22386 0.5 3.5 0.5H54.5C54.7761 0.5 55 0.723858 55 1V25C55 25.2761 54.7761 25.5 54.5 25.5H4C3.72386 25.5 3.5 25.2761 3.5 25V15.0352C3.5 14.5337 3.24935 14.0653 2.83205 13.7871L1.41525 12.8426C1.13368 12.6549 1.116 12.2475 1.38025 12.0361L2.43704 11.1907C2.79287 10.906 3 10.4751 3 10.0194V1Z" stroke="black" stroke-opacity="0.1"/>
<path opacity="0.9" d="M26.2852 14.1348H27.4688V15.0195H26.2852V17H25.1953V15.0195H21.3105V14.3809L25.1309 8.46875H26.2852V14.1348ZM22.541 14.1348H25.1953V9.95117L25.0664 10.1855L22.541 14.1348ZM28.9453 12.7227L29.3789 8.46875H33.75V9.4707H30.2988L30.041 11.7969C30.459 11.5508 30.9336 11.4277 31.4648 11.4277C32.2422 11.4277 32.8594 11.6855 33.3164 12.2012C33.7734 12.7129 34.002 13.4062 34.002 14.2812C34.002 15.1602 33.7637 15.8535 33.2871 16.3613C32.8145 16.8652 32.1523 17.1172 31.3008 17.1172C30.5469 17.1172 29.9316 16.9082 29.4551 16.4902C28.9785 16.0723 28.707 15.4941 28.6406 14.7559H29.666C29.7324 15.2441 29.9062 15.6133 30.1875 15.8633C30.4688 16.1094 30.8398 16.2324 31.3008 16.2324C31.8047 16.2324 32.1992 16.0605 32.4844 15.7168C32.7734 15.373 32.918 14.8984 32.918 14.293C32.918 13.7227 32.7617 13.2656 32.4492 12.9219C32.1406 12.5742 31.7285 12.4004 31.2129 12.4004C30.7402 12.4004 30.3691 12.5039 30.0996 12.7109L29.8125 12.9453L28.9453 12.7227ZM40.5352 13.3613C40.5352 14.6309 40.3184 15.5742 39.8848 16.1914C39.4512 16.8086 38.7734 17.1172 37.8516 17.1172C36.9414 17.1172 36.2676 16.8164 35.8301 16.2148C35.3926 15.6094 35.166 14.707 35.1504 13.5078V12.0605C35.1504 10.8066 35.3672 9.875 35.8008 9.26562C36.2344 8.65625 36.9141 8.35156 37.8398 8.35156C38.7578 8.35156 39.4336 8.64648 39.8672 9.23633C40.3008 9.82227 40.5234 10.7285 40.5352 11.9551V13.3613ZM39.4512 11.8789C39.4512 10.9609 39.3223 10.293 39.0645 9.875C38.8066 9.45312 38.3984 9.24219 37.8398 9.24219C37.2852 9.24219 36.8809 9.45117 36.627 9.86914C36.373 10.2871 36.2422 10.9297 36.2344 11.7969V13.5312C36.2344 14.4531 36.3672 15.1348 36.6328 15.5762C36.9023 16.0137 37.3086 16.2324 37.8516 16.2324C38.3867 16.2324 38.7832 16.0254 39.041 15.6113C39.3027 15.1973 39.4395 14.5449 39.4512 13.6543V11.8789Z" fill="#BABABE"/>
</svg>
