<svg width="123" height="31" viewBox="0 0 123 31" fill="none" xmlns="http://www.w3.org/2000/svg">
<rect width="123" height="31" rx="15.5" fill="#008FEE"/>
<path d="M27.7708 16.7129V19.7188H26.0129V11.1875H29.3411C29.9817 11.1875 30.5442 11.3047 31.0286 11.5391C31.5168 11.7734 31.8918 12.1074 32.1536 12.541C32.4153 12.9707 32.5461 13.4609 32.5461 14.0117C32.5461 14.8477 32.259 15.5078 31.6848 15.9922C31.1145 16.4727 30.3235 16.7129 29.3118 16.7129H27.7708ZM27.7708 15.2891H29.3411C29.8059 15.2891 30.1594 15.1797 30.4016 14.9609C30.6477 14.7422 30.7708 14.4297 30.7708 14.0234C30.7708 13.6055 30.6477 13.2676 30.4016 13.0098C30.1555 12.752 29.8157 12.6191 29.3821 12.6113H27.7708V15.2891ZM35.4348 19.7188H33.7356V13.3789H35.4348V19.7188ZM33.636 11.7383C33.636 11.4844 33.72 11.2754 33.8879 11.1113C34.0598 10.9473 34.2922 10.8652 34.5852 10.8652C34.8743 10.8652 35.1047 10.9473 35.2766 11.1113C35.4485 11.2754 35.5344 11.4844 35.5344 11.7383C35.5344 11.9961 35.4465 12.207 35.2708 12.3711C35.0989 12.5352 34.8704 12.6172 34.5852 12.6172C34.3 12.6172 34.0696 12.5352 33.8938 12.3711C33.7219 12.207 33.636 11.9961 33.636 11.7383ZM38.6223 19.7188H36.9231V10.7188H38.6223V19.7188ZM41.8098 19.7188H40.1106V13.3789H41.8098V19.7188ZM40.011 11.7383C40.011 11.4844 40.095 11.2754 40.2629 11.1113C40.4348 10.9473 40.6672 10.8652 40.9602 10.8652C41.2493 10.8652 41.4797 10.9473 41.6516 11.1113C41.8235 11.2754 41.9094 11.4844 41.9094 11.7383C41.9094 11.9961 41.8215 12.207 41.6458 12.3711C41.4739 12.5352 41.2454 12.6172 40.9602 12.6172C40.675 12.6172 40.4446 12.5352 40.2688 12.3711C40.0969 12.207 40.011 11.9961 40.011 11.7383ZM44.8625 14.0703C45.3118 13.5312 45.8762 13.2617 46.5559 13.2617C47.9309 13.2617 48.6282 14.0605 48.6477 15.6582V19.7188H46.9543V15.7051C46.9543 15.3418 46.8762 15.0742 46.72 14.9023C46.5637 14.7266 46.304 14.6387 45.9407 14.6387C45.4446 14.6387 45.0852 14.8301 44.8625 15.2129V19.7188H43.1692V10.7188H44.8625V14.0703ZM57.4485 17.4805C57.4485 17.1484 57.3313 16.8945 57.0969 16.7188C56.8625 16.5391 56.4407 16.3516 55.8313 16.1562C55.2219 15.957 54.7395 15.7617 54.384 15.5703C53.4153 15.0469 52.9309 14.3418 52.9309 13.4551C52.9309 12.9941 53.0598 12.584 53.3176 12.2246C53.5793 11.8613 53.9524 11.5781 54.4368 11.375C54.925 11.1719 55.4719 11.0703 56.0774 11.0703C56.6868 11.0703 57.2297 11.1816 57.7063 11.4043C58.1829 11.623 58.552 11.9336 58.8137 12.3359C59.0793 12.7383 59.2122 13.1953 59.2122 13.707H57.4543C57.4543 13.3164 57.3313 13.0137 57.0852 12.7988C56.8391 12.5801 56.4934 12.4707 56.0481 12.4707C55.6184 12.4707 55.2844 12.5625 55.0461 12.7461C54.8079 12.9258 54.6887 13.1641 54.6887 13.4609C54.6887 13.7383 54.8274 13.9707 55.1047 14.1582C55.386 14.3457 55.7981 14.5215 56.3411 14.6855C57.3411 14.9863 58.0696 15.3594 58.5266 15.8047C58.9836 16.25 59.2122 16.8047 59.2122 17.4688C59.2122 18.207 58.9329 18.7871 58.3743 19.209C57.8157 19.627 57.0637 19.8359 56.1184 19.8359C55.4622 19.8359 54.8645 19.7168 54.3254 19.4785C53.7864 19.2363 53.3743 18.9062 53.0891 18.4883C52.8079 18.0703 52.6672 17.5859 52.6672 17.0352H54.4309C54.4309 17.9766 54.9934 18.4473 56.1184 18.4473C56.5364 18.4473 56.8625 18.3633 57.0969 18.1953C57.3313 18.0234 57.4485 17.7852 57.4485 17.4805ZM63.2141 19.8359C62.2844 19.8359 61.5266 19.5508 60.9407 18.9805C60.3586 18.4102 60.0676 17.6504 60.0676 16.7012V16.5371C60.0676 15.9004 60.1907 15.332 60.4368 14.832C60.6829 14.3281 61.0305 13.9414 61.4797 13.6719C61.9329 13.3984 62.4485 13.2617 63.0266 13.2617C63.8938 13.2617 64.5754 13.5352 65.0715 14.082C65.5715 14.6289 65.8215 15.4043 65.8215 16.4082V17.0996H61.7844C61.8391 17.5137 62.0032 17.8457 62.2766 18.0957C62.554 18.3457 62.9036 18.4707 63.3254 18.4707C63.9778 18.4707 64.4875 18.2344 64.8547 17.7617L65.6868 18.6934C65.4329 19.0527 65.0891 19.334 64.6555 19.5371C64.2219 19.7363 63.7415 19.8359 63.2141 19.8359ZM63.0208 14.6328C62.6848 14.6328 62.4114 14.7461 62.2004 14.9727C61.9934 15.1992 61.8606 15.5234 61.802 15.9453H64.1575V15.8105C64.1497 15.4355 64.0481 15.1465 63.8528 14.9434C63.6575 14.7363 63.3801 14.6328 63.0208 14.6328ZM69.0911 17.1758L68.4817 17.7852V19.7188H66.7883V10.7188H68.4817V15.7051L68.8098 15.2832L70.4329 13.3789H72.4661L70.175 16.0215L72.6653 19.7188H70.72L69.0911 17.1758ZM76.8723 19.7188C76.7942 19.5664 76.7375 19.377 76.7024 19.1504C76.2922 19.6074 75.759 19.8359 75.1028 19.8359C74.4817 19.8359 73.9661 19.6562 73.5559 19.2969C73.1497 18.9375 72.9465 18.4844 72.9465 17.9375C72.9465 17.2656 73.1946 16.75 73.6907 16.3906C74.1907 16.0312 74.9114 15.8496 75.8528 15.8457H76.6321V15.4824C76.6321 15.1895 76.5559 14.9551 76.4036 14.7793C76.2551 14.6035 76.0188 14.5156 75.6946 14.5156C75.4094 14.5156 75.1848 14.584 75.0208 14.7207C74.8606 14.8574 74.7805 15.0449 74.7805 15.2832H73.0872C73.0872 14.916 73.2004 14.5762 73.427 14.2637C73.6536 13.9512 73.9739 13.707 74.3879 13.5312C74.802 13.3516 75.2668 13.2617 75.7825 13.2617C76.5637 13.2617 77.1829 13.459 77.6399 13.8535C78.1008 14.2441 78.3313 14.7949 78.3313 15.5059V18.2539C78.3352 18.8555 78.4192 19.3105 78.5833 19.6191V19.7188H76.8723ZM75.4719 18.541C75.7219 18.541 75.9524 18.4863 76.1633 18.377C76.3743 18.2637 76.5305 18.1133 76.6321 17.9258V16.8359H75.9993C75.1516 16.8359 74.7004 17.1289 74.6458 17.7148L74.6399 17.8145C74.6399 18.0254 74.7141 18.1992 74.8625 18.3359C75.011 18.4727 75.2141 18.541 75.4719 18.541ZM83.1946 14.9668C82.9641 14.9355 82.761 14.9199 82.5852 14.9199C81.9446 14.9199 81.5247 15.1367 81.3254 15.5703V19.7188H79.6321V13.3789H81.2317L81.2786 14.1348C81.6184 13.5527 82.0891 13.2617 82.6907 13.2617C82.8782 13.2617 83.054 13.2871 83.218 13.3379L83.1946 14.9668ZM87.5129 19.7188C87.4348 19.5664 87.3782 19.377 87.343 19.1504C86.9329 19.6074 86.3997 19.8359 85.7434 19.8359C85.1223 19.8359 84.6067 19.6562 84.1965 19.2969C83.7903 18.9375 83.5872 18.4844 83.5872 17.9375C83.5872 17.2656 83.8352 16.75 84.3313 16.3906C84.8313 16.0312 85.552 15.8496 86.4934 15.8457H87.2727V15.4824C87.2727 15.1895 87.1965 14.9551 87.0442 14.7793C86.8958 14.6035 86.6594 14.5156 86.3352 14.5156C86.05 14.5156 85.8254 14.584 85.6614 14.7207C85.5012 14.8574 85.4211 15.0449 85.4211 15.2832H83.7278C83.7278 14.916 83.8411 14.5762 84.0676 14.2637C84.2942 13.9512 84.6145 13.707 85.0286 13.5312C85.4426 13.3516 85.9075 13.2617 86.4231 13.2617C87.2043 13.2617 87.8235 13.459 88.2805 13.8535C88.7415 14.2441 88.9719 14.7949 88.9719 15.5059V18.2539C88.9758 18.8555 89.0598 19.3105 89.2239 19.6191V19.7188H87.5129ZM86.1125 18.541C86.3625 18.541 86.593 18.4863 86.804 18.377C87.0149 18.2637 87.1711 18.1133 87.2727 17.9258V16.8359H86.6399C85.7922 16.8359 85.3411 17.1289 85.2864 17.7148L85.2805 17.8145C85.2805 18.0254 85.3547 18.1992 85.5032 18.3359C85.6516 18.4727 85.8547 18.541 86.1125 18.541ZM91.8313 13.3789L91.884 14.1113C92.3372 13.5449 92.9446 13.2617 93.7063 13.2617C94.3782 13.2617 94.8782 13.459 95.2063 13.8535C95.5344 14.248 95.7024 14.8379 95.7102 15.623V19.7188H94.0168V15.6641C94.0168 15.3047 93.9387 15.0449 93.7825 14.8848C93.6262 14.7207 93.3665 14.6387 93.0032 14.6387C92.5266 14.6387 92.1692 14.8418 91.9309 15.248V19.7188H90.2375V13.3789H91.8313ZM96.7532 16.502C96.7532 15.5293 96.9836 14.7461 97.4446 14.1523C97.9094 13.5586 98.5344 13.2617 99.3196 13.2617C100.015 13.2617 100.556 13.5 100.943 13.9766L101.013 13.3789H102.548V19.5078C102.548 20.0625 102.421 20.5449 102.167 20.9551C101.917 21.3652 101.564 21.6777 101.107 21.8926C100.65 22.1074 100.115 22.2148 99.5012 22.2148C99.0364 22.2148 98.5833 22.1211 98.1418 21.9336C97.7004 21.75 97.3665 21.5117 97.1399 21.2188L97.8899 20.1875C98.3118 20.6602 98.8235 20.8965 99.425 20.8965C99.8743 20.8965 100.224 20.7754 100.474 20.5332C100.724 20.2949 100.849 19.9551 100.849 19.5137V19.1738C100.458 19.6152 99.9446 19.8359 99.3079 19.8359C98.5461 19.8359 97.929 19.5391 97.4563 18.9453C96.9875 18.3477 96.7532 17.5566 96.7532 16.5723V16.502ZM98.4465 16.625C98.4465 17.1992 98.5618 17.6504 98.7922 17.9785C99.0227 18.3027 99.3391 18.4648 99.7415 18.4648C100.257 18.4648 100.626 18.2715 100.849 17.8848V15.2188C100.622 14.832 100.257 14.6387 99.7532 14.6387C99.3469 14.6387 99.0266 14.8047 98.7922 15.1367C98.5618 15.4688 98.4465 15.9648 98.4465 16.625Z" fill="#F9FCFF"/>
</svg>
