<svg width="165" height="37" viewBox="0 0 165 37" fill="none" xmlns="http://www.w3.org/2000/svg">
<rect width="165" height="37" rx="18.5" fill="#00A2F3"/>
<path d="M37.9043 18.0664V21.4062H36.7793V12.875H39.9258C40.8594 12.875 41.5898 13.1133 42.1172 13.5898C42.6484 14.0664 42.9141 14.6973 42.9141 15.4824C42.9141 16.3105 42.6543 16.9492 42.1348 17.3984C41.6191 17.8438 40.8789 18.0664 39.9141 18.0664H37.9043ZM37.9043 17.1465H39.9258C40.5273 17.1465 40.9883 17.0059 41.3086 16.7246C41.6289 16.4395 41.7891 16.0293 41.7891 15.4941C41.7891 14.9863 41.6289 14.5801 41.3086 14.2754C40.9883 13.9707 40.5488 13.8125 39.9902 13.8008H37.9043V17.1465ZM45.3574 21.4062H44.2734V15.0664H45.3574V21.4062ZM44.1855 13.3848C44.1855 13.209 44.2383 13.0605 44.3438 12.9395C44.4531 12.8184 44.6133 12.7578 44.8242 12.7578C45.0352 12.7578 45.1953 12.8184 45.3047 12.9395C45.4141 13.0605 45.4688 13.209 45.4688 13.3848C45.4688 13.5605 45.4141 13.707 45.3047 13.8242C45.1953 13.9414 45.0352 14 44.8242 14C44.6133 14 44.4531 13.9414 44.3438 13.8242C44.2383 13.707 44.1855 13.5605 44.1855 13.3848ZM48.2754 21.4062H47.1914V12.4062H48.2754V21.4062ZM51.1934 21.4062H50.1094V15.0664H51.1934V21.4062ZM50.0215 13.3848C50.0215 13.209 50.0742 13.0605 50.1797 12.9395C50.2891 12.8184 50.4492 12.7578 50.6602 12.7578C50.8711 12.7578 51.0312 12.8184 51.1406 12.9395C51.25 13.0605 51.3047 13.209 51.3047 13.3848C51.3047 13.5605 51.25 13.707 51.1406 13.8242C51.0312 13.9414 50.8711 14 50.6602 14C50.4492 14 50.2891 13.9414 50.1797 13.8242C50.0742 13.707 50.0215 13.5605 50.0215 13.3848ZM54.0176 15.834C54.498 15.2441 55.123 14.9492 55.8926 14.9492C57.2324 14.9492 57.9082 15.7051 57.9199 17.2168V21.4062H56.8359V17.2109C56.832 16.7539 56.7266 16.416 56.5195 16.1973C56.3164 15.9785 55.998 15.8691 55.5645 15.8691C55.2129 15.8691 54.9043 15.9629 54.6387 16.1504C54.373 16.3379 54.166 16.584 54.0176 16.8887V21.4062H52.9336V12.4062H54.0176V15.834ZM69.2461 21.4062H68.1152V17.4629H63.8145V21.4062H62.6895V12.875H63.8145V16.543H68.1152V12.875H69.2461V21.4062ZM70.7871 18.1777C70.7871 17.5566 70.9082 16.998 71.1504 16.502C71.3965 16.0059 71.7363 15.623 72.1699 15.3535C72.6074 15.084 73.1055 14.9492 73.6641 14.9492C74.5273 14.9492 75.2246 15.248 75.7559 15.8457C76.291 16.4434 76.5586 17.2383 76.5586 18.2305V18.3066C76.5586 18.9238 76.4395 19.4785 76.2012 19.9707C75.9668 20.459 75.6289 20.8398 75.1875 21.1133C74.75 21.3867 74.2461 21.5234 73.6758 21.5234C72.8164 21.5234 72.1191 21.2246 71.584 20.627C71.0527 20.0293 70.7871 19.2383 70.7871 18.2539V18.1777ZM71.877 18.3066C71.877 19.0098 72.0391 19.5742 72.3633 20C72.6914 20.4258 73.1289 20.6387 73.6758 20.6387C74.2266 20.6387 74.6641 20.4238 74.9883 19.9941C75.3125 19.5605 75.4746 18.9551 75.4746 18.1777C75.4746 17.4824 75.3086 16.9199 74.9766 16.4902C74.6484 16.0566 74.2109 15.8398 73.6641 15.8398C73.1289 15.8398 72.6973 16.0527 72.3691 16.4785C72.041 16.9043 71.877 17.5137 71.877 18.3066ZM81.6094 19.7246C81.6094 19.4316 81.498 19.2051 81.2754 19.0449C81.0566 18.8809 80.6719 18.7402 80.1211 18.623C79.5742 18.5059 79.1387 18.3652 78.8145 18.2012C78.4941 18.0371 78.2559 17.8418 78.0996 17.6152C77.9473 17.3887 77.8711 17.1191 77.8711 16.8066C77.8711 16.2871 78.0898 15.8477 78.5273 15.4883C78.9688 15.1289 79.5312 14.9492 80.2148 14.9492C80.9336 14.9492 81.5156 15.1348 81.9609 15.5059C82.4102 15.877 82.6348 16.3516 82.6348 16.9297H81.5449C81.5449 16.6328 81.418 16.377 81.1641 16.1621C80.9141 15.9473 80.5977 15.8398 80.2148 15.8398C79.8203 15.8398 79.5117 15.9258 79.2891 16.0977C79.0664 16.2695 78.9551 16.4941 78.9551 16.7715C78.9551 17.0332 79.0586 17.2305 79.2656 17.3633C79.4727 17.4961 79.8457 17.623 80.3848 17.7441C80.9277 17.8652 81.3672 18.0098 81.7031 18.1777C82.0391 18.3457 82.2871 18.5488 82.4473 18.7871C82.6113 19.0215 82.6934 19.3086 82.6934 19.6484C82.6934 20.2148 82.4668 20.6699 82.0137 21.0137C81.5605 21.3535 80.9727 21.5234 80.25 21.5234C79.7422 21.5234 79.293 21.4336 78.9023 21.2539C78.5117 21.0742 78.2051 20.8242 77.9824 20.5039C77.7637 20.1797 77.6543 19.8301 77.6543 19.4551H78.7383C78.7578 19.8184 78.9023 20.1074 79.1719 20.3223C79.4453 20.5332 79.8047 20.6387 80.25 20.6387C80.6602 20.6387 80.9883 20.5566 81.2344 20.3926C81.4844 20.2246 81.6094 20.002 81.6094 19.7246ZM85.5762 13.5312V15.0664H86.7598V15.9043H85.5762V19.8359C85.5762 20.0898 85.6289 20.2812 85.7344 20.4102C85.8398 20.5352 86.0195 20.5977 86.2734 20.5977C86.3984 20.5977 86.5703 20.5742 86.7891 20.5273V21.4062C86.5039 21.4844 86.2266 21.5234 85.957 21.5234C85.4727 21.5234 85.1074 21.377 84.8613 21.084C84.6152 20.791 84.4922 20.375 84.4922 19.8359V15.9043H83.3379V15.0664H84.4922V13.5312H85.5762ZM89.209 21.4062H88.125V15.0664H89.209V21.4062ZM88.0371 13.3848C88.0371 13.209 88.0898 13.0605 88.1953 12.9395C88.3047 12.8184 88.4648 12.7578 88.6758 12.7578C88.8867 12.7578 89.0469 12.8184 89.1562 12.9395C89.2656 13.0605 89.3203 13.209 89.3203 13.3848C89.3203 13.5605 89.2656 13.707 89.1562 13.8242C89.0469 13.9414 88.8867 14 88.6758 14C88.4648 14 88.3047 13.9414 88.1953 13.8242C88.0898 13.707 88.0371 13.5605 88.0371 13.3848ZM91.9746 15.0664L92.0098 15.8633C92.4941 15.2539 93.127 14.9492 93.9082 14.9492C95.248 14.9492 95.9238 15.7051 95.9355 17.2168V21.4062H94.8516V17.2109C94.8477 16.7539 94.7422 16.416 94.5352 16.1973C94.332 15.9785 94.0137 15.8691 93.5801 15.8691C93.2285 15.8691 92.9199 15.9629 92.6543 16.1504C92.3887 16.3379 92.1816 16.584 92.0332 16.8887V21.4062H90.9492V15.0664H91.9746ZM97.3125 18.1836C97.3125 17.1953 97.541 16.4102 97.998 15.8281C98.4551 15.2422 99.0605 14.9492 99.8145 14.9492C100.588 14.9492 101.191 15.2227 101.625 15.7695L101.678 15.0664H102.668V21.2539C102.668 22.0742 102.424 22.7207 101.936 23.1934C101.451 23.666 100.799 23.9023 99.9785 23.9023C99.5215 23.9023 99.0742 23.8047 98.6367 23.6094C98.1992 23.4141 97.8652 23.1465 97.6348 22.8066L98.1973 22.1562C98.6621 22.7305 99.2305 23.0176 99.9023 23.0176C100.43 23.0176 100.84 22.8691 101.133 22.5723C101.43 22.2754 101.578 21.8574 101.578 21.3184V20.7734C101.145 21.2734 100.553 21.5234 99.8027 21.5234C99.0605 21.5234 98.459 21.2246 97.998 20.627C97.541 20.0293 97.3125 19.2148 97.3125 18.1836ZM98.4023 18.3066C98.4023 19.0215 98.5488 19.584 98.8418 19.9941C99.1348 20.4004 99.5449 20.6035 100.072 20.6035C100.756 20.6035 101.258 20.293 101.578 19.6719V16.7773C101.246 16.1719 100.748 15.8691 100.084 15.8691C99.5566 15.8691 99.1445 16.0742 98.8477 16.4844C98.5508 16.8945 98.4023 17.502 98.4023 18.3066ZM112.166 19.1797H108.592L107.789 21.4062H106.629L109.887 12.875H110.871L114.135 21.4062H112.98L112.166 19.1797ZM108.932 18.2539H111.832L110.379 14.2637L108.932 18.2539ZM116.139 15.0664L116.174 15.8633C116.658 15.2539 117.291 14.9492 118.072 14.9492C119.412 14.9492 120.088 15.7051 120.1 17.2168V21.4062H119.016V17.2109C119.012 16.7539 118.906 16.416 118.699 16.1973C118.496 15.9785 118.178 15.8691 117.744 15.8691C117.393 15.8691 117.084 15.9629 116.818 16.1504C116.553 16.3379 116.346 16.584 116.197 16.8887V21.4062H115.113V15.0664H116.139ZM121.471 18.1836C121.471 17.2109 121.701 16.4297 122.162 15.8398C122.623 15.2461 123.227 14.9492 123.973 14.9492C124.715 14.9492 125.303 15.2031 125.736 15.7109V12.4062H126.82V21.4062H125.824L125.771 20.7266C125.338 21.2578 124.734 21.5234 123.961 21.5234C123.227 21.5234 122.627 21.2227 122.162 20.6211C121.701 20.0195 121.471 19.2344 121.471 18.2656V18.1836ZM122.555 18.3066C122.555 19.0254 122.703 19.5879 123 19.9941C123.297 20.4004 123.707 20.6035 124.23 20.6035C124.918 20.6035 125.42 20.2949 125.736 19.6777V16.7656C125.412 16.168 124.914 15.8691 124.242 15.8691C123.711 15.8691 123.297 16.0742 123 16.4844C122.703 16.8945 122.555 17.502 122.555 18.3066ZM132.422 21.4062C132.359 21.2812 132.309 21.0586 132.27 20.7383C131.766 21.2617 131.164 21.5234 130.465 21.5234C129.84 21.5234 129.326 21.3477 128.924 20.9961C128.525 20.6406 128.326 20.1914 128.326 19.6484C128.326 18.9883 128.576 18.4766 129.076 18.1133C129.58 17.7461 130.287 17.5625 131.197 17.5625H132.252V17.0645C132.252 16.6855 132.139 16.3848 131.912 16.1621C131.686 15.9355 131.352 15.8223 130.91 15.8223C130.523 15.8223 130.199 15.9199 129.938 16.1152C129.676 16.3105 129.545 16.5469 129.545 16.8242H128.455C128.455 16.5078 128.566 16.2031 128.789 15.9102C129.016 15.6133 129.32 15.3789 129.703 15.207C130.09 15.0352 130.514 14.9492 130.975 14.9492C131.705 14.9492 132.277 15.1328 132.691 15.5C133.105 15.8633 133.32 16.3652 133.336 17.0059V19.9238C133.336 20.5059 133.41 20.9688 133.559 21.3125V21.4062H132.422ZM130.623 20.5801C130.963 20.5801 131.285 20.4922 131.59 20.3164C131.895 20.1406 132.115 19.9121 132.252 19.6309V18.3301H131.402C130.074 18.3301 129.41 18.7188 129.41 19.4961C129.41 19.8359 129.523 20.1016 129.75 20.293C129.977 20.4844 130.268 20.5801 130.623 20.5801Z" fill="white"/>
</svg>
