<svg width="149" height="38" viewBox="0 0 149 38" fill="none" xmlns="http://www.w3.org/2000/svg">
<rect x="1" y="1" width="147" height="36" rx="18" fill="white" stroke="black" stroke-width="2"/>
<path d="M45.1152 17.8848C44.1504 17.6074 43.4473 17.2676 43.0059 16.8652C42.5684 16.459 42.3496 15.959 42.3496 15.3652C42.3496 14.6934 42.6172 14.1387 43.1523 13.7012C43.6914 13.2598 44.3906 13.0391 45.25 13.0391C45.8359 13.0391 46.3574 13.1523 46.8145 13.3789C47.2754 13.6055 47.6309 13.918 47.8809 14.3164C48.1348 14.7148 48.2617 15.1504 48.2617 15.623H47.1309C47.1309 15.1074 46.9668 14.7031 46.6387 14.4102C46.3105 14.1133 45.8477 13.9648 45.25 13.9648C44.6953 13.9648 44.2617 14.0879 43.9492 14.334C43.6406 14.5762 43.4863 14.9141 43.4863 15.3477C43.4863 15.6953 43.6328 15.9902 43.9258 16.2324C44.2227 16.4707 44.7246 16.6895 45.4316 16.8887C46.1426 17.0879 46.6973 17.3086 47.0957 17.5508C47.498 17.7891 47.7949 18.0684 47.9863 18.3887C48.1816 18.709 48.2793 19.0859 48.2793 19.5195C48.2793 20.2109 48.0098 20.7656 47.4707 21.1836C46.9316 21.5977 46.2109 21.8047 45.3086 21.8047C44.7227 21.8047 44.1758 21.6934 43.668 21.4707C43.1602 21.2441 42.7676 20.9355 42.4902 20.5449C42.2168 20.1543 42.0801 19.7109 42.0801 19.2148H43.2109C43.2109 19.7305 43.4004 20.1387 43.7793 20.4395C44.1621 20.7363 44.6719 20.8848 45.3086 20.8848C45.9023 20.8848 46.3574 20.7637 46.6738 20.5215C46.9902 20.2793 47.1484 19.9492 47.1484 19.5312C47.1484 19.1133 47.002 18.791 46.709 18.5645C46.416 18.334 45.8848 18.1074 45.1152 17.8848ZM52.1875 21.8047C51.3281 21.8047 50.6289 21.5234 50.0898 20.9609C49.5508 20.3945 49.2812 19.6387 49.2812 18.6934V18.4941C49.2812 17.8652 49.4004 17.3047 49.6387 16.8125C49.8809 16.3164 50.2168 15.9297 50.6465 15.6523C51.0801 15.3711 51.5488 15.2305 52.0527 15.2305C52.877 15.2305 53.5176 15.502 53.9746 16.0449C54.4316 16.5879 54.6602 17.3652 54.6602 18.377V18.8281H50.3652C50.3809 19.4531 50.5625 19.959 50.9102 20.3457C51.2617 20.7285 51.707 20.9199 52.2461 20.9199C52.6289 20.9199 52.9531 20.8418 53.2188 20.6855C53.4844 20.5293 53.7168 20.3223 53.916 20.0645L54.5781 20.5801C54.0469 21.3965 53.25 21.8047 52.1875 21.8047ZM52.0527 16.1211C51.6152 16.1211 51.248 16.2812 50.9512 16.6016C50.6543 16.918 50.4707 17.3633 50.4004 17.9375H53.5762V17.8555C53.5449 17.3047 53.3965 16.8789 53.1309 16.5781C52.8652 16.2734 52.5059 16.1211 52.0527 16.1211ZM57.0977 21.6875H56.0137V12.6875H57.0977V21.6875ZM61.4688 21.8047C60.6094 21.8047 59.9102 21.5234 59.3711 20.9609C58.832 20.3945 58.5625 19.6387 58.5625 18.6934V18.4941C58.5625 17.8652 58.6816 17.3047 58.9199 16.8125C59.1621 16.3164 59.498 15.9297 59.9277 15.6523C60.3613 15.3711 60.8301 15.2305 61.334 15.2305C62.1582 15.2305 62.7988 15.502 63.2559 16.0449C63.7129 16.5879 63.9414 17.3652 63.9414 18.377V18.8281H59.6465C59.6621 19.4531 59.8438 19.959 60.1914 20.3457C60.543 20.7285 60.9883 20.9199 61.5273 20.9199C61.9102 20.9199 62.2344 20.8418 62.5 20.6855C62.7656 20.5293 62.998 20.3223 63.1973 20.0645L63.8594 20.5801C63.3281 21.3965 62.5312 21.8047 61.4688 21.8047ZM61.334 16.1211C60.8965 16.1211 60.5293 16.2812 60.2324 16.6016C59.9355 16.918 59.752 17.3633 59.6816 17.9375H62.8574V17.8555C62.8262 17.3047 62.6777 16.8789 62.4121 16.5781C62.1465 16.2734 61.7871 16.1211 61.334 16.1211ZM66.2266 15.3477L66.2617 16.1445C66.7461 15.5352 67.3789 15.2305 68.1602 15.2305C69.5 15.2305 70.1758 15.9863 70.1875 17.498V21.6875H69.1035V17.4922C69.0996 17.0352 68.9941 16.6973 68.7871 16.4785C68.584 16.2598 68.2656 16.1504 67.832 16.1504C67.4805 16.1504 67.1719 16.2441 66.9062 16.4316C66.6406 16.6191 66.4336 16.8652 66.2852 17.1699V21.6875H65.2012V15.3477H66.2266ZM71.5645 18.4648C71.5645 17.4766 71.793 16.6914 72.25 16.1094C72.707 15.5234 73.3125 15.2305 74.0664 15.2305C74.8398 15.2305 75.4434 15.5039 75.877 16.0508L75.9297 15.3477H76.9199V21.5352C76.9199 22.3555 76.6758 23.002 76.1875 23.4746C75.7031 23.9473 75.0508 24.1836 74.2305 24.1836C73.7734 24.1836 73.3262 24.0859 72.8887 23.8906C72.4512 23.6953 72.1172 23.4277 71.8867 23.0879L72.4492 22.4375C72.9141 23.0117 73.4824 23.2988 74.1543 23.2988C74.6816 23.2988 75.0918 23.1504 75.3848 22.8535C75.6816 22.5566 75.8301 22.1387 75.8301 21.5996V21.0547C75.3965 21.5547 74.8047 21.8047 74.0547 21.8047C73.3125 21.8047 72.7109 21.5059 72.25 20.9082C71.793 20.3105 71.5645 19.4961 71.5645 18.4648ZM72.6543 18.5879C72.6543 19.3027 72.8008 19.8652 73.0938 20.2754C73.3867 20.6816 73.7969 20.8848 74.3242 20.8848C75.0078 20.8848 75.5098 20.5742 75.8301 19.9531V17.0586C75.498 16.4531 75 16.1504 74.3359 16.1504C73.8086 16.1504 73.3965 16.3555 73.0996 16.7656C72.8027 17.1758 72.6543 17.7832 72.6543 18.5879ZM80.3301 18.752L79.6504 19.4609V21.6875H78.5664V12.6875H79.6504V18.1309L80.2305 17.4336L82.2051 15.3477H83.5234L81.0566 17.9961L83.8105 21.6875H82.5391L80.3301 18.752ZM88.5566 21.6875C88.4941 21.5625 88.4434 21.3398 88.4043 21.0195C87.9004 21.543 87.2988 21.8047 86.5996 21.8047C85.9746 21.8047 85.4609 21.6289 85.0586 21.2773C84.6602 20.9219 84.4609 20.4727 84.4609 19.9297C84.4609 19.2695 84.7109 18.7578 85.2109 18.3945C85.7148 18.0273 86.4219 17.8438 87.332 17.8438H88.3867V17.3457C88.3867 16.9668 88.2734 16.666 88.0469 16.4434C87.8203 16.2168 87.4863 16.1035 87.0449 16.1035C86.6582 16.1035 86.334 16.2012 86.0723 16.3965C85.8105 16.5918 85.6797 16.8281 85.6797 17.1055H84.5898C84.5898 16.7891 84.7012 16.4844 84.9238 16.1914C85.1504 15.8945 85.4551 15.6602 85.8379 15.4883C86.2246 15.3164 86.6484 15.2305 87.1094 15.2305C87.8398 15.2305 88.4121 15.4141 88.8262 15.7812C89.2402 16.1445 89.4551 16.6465 89.4707 17.2871V20.2051C89.4707 20.7871 89.5449 21.25 89.6934 21.5938V21.6875H88.5566ZM86.7578 20.8613C87.0977 20.8613 87.4199 20.7734 87.7246 20.5977C88.0293 20.4219 88.25 20.1934 88.3867 19.9121V18.6113H87.5371C86.209 18.6113 85.5449 19 85.5449 19.7773C85.5449 20.1172 85.6582 20.3828 85.8848 20.5742C86.1113 20.7656 86.4023 20.8613 86.7578 20.8613ZM96.5254 18.5879C96.5254 19.5527 96.3047 20.3301 95.8633 20.9199C95.4219 21.5098 94.8242 21.8047 94.0703 21.8047C93.3008 21.8047 92.6953 21.5605 92.2539 21.0723V24.125H91.1699V15.3477H92.1602L92.2129 16.0508C92.6543 15.5039 93.2676 15.2305 94.0527 15.2305C94.8145 15.2305 95.416 15.5176 95.8574 16.0918C96.3027 16.666 96.5254 17.4648 96.5254 18.4883V18.5879ZM95.4414 18.4648C95.4414 17.75 95.2891 17.1855 94.9844 16.7715C94.6797 16.3574 94.2617 16.1504 93.7305 16.1504C93.0742 16.1504 92.582 16.4414 92.2539 17.0234V20.0527C92.5781 20.6309 93.0742 20.9199 93.7422 20.9199C94.2617 20.9199 94.6738 20.7148 94.9785 20.3047C95.2871 19.8906 95.4414 19.2773 95.4414 18.4648ZM98.9336 15.3477L98.9688 16.1445C99.4531 15.5352 100.086 15.2305 100.867 15.2305C102.207 15.2305 102.883 15.9863 102.895 17.498V21.6875H101.811V17.4922C101.807 17.0352 101.701 16.6973 101.494 16.4785C101.291 16.2598 100.973 16.1504 100.539 16.1504C100.188 16.1504 99.8789 16.2441 99.6133 16.4316C99.3477 16.6191 99.1406 16.8652 98.9922 17.1699V21.6875H97.9082V15.3477H98.9336ZM106.604 20.0996L108.08 15.3477H109.24L106.691 22.666C106.297 23.7207 105.67 24.248 104.811 24.248L104.605 24.2305L104.201 24.1543V23.2754L104.494 23.2988C104.861 23.2988 105.146 23.2246 105.35 23.0762C105.557 22.9277 105.727 22.6562 105.859 22.2617L106.1 21.6172L103.838 15.3477H105.021L106.604 20.0996ZM114.033 21.6875C113.971 21.5625 113.92 21.3398 113.881 21.0195C113.377 21.543 112.775 21.8047 112.076 21.8047C111.451 21.8047 110.938 21.6289 110.535 21.2773C110.137 20.9219 109.938 20.4727 109.938 19.9297C109.938 19.2695 110.188 18.7578 110.688 18.3945C111.191 18.0273 111.898 17.8438 112.809 17.8438H113.863V17.3457C113.863 16.9668 113.75 16.666 113.523 16.4434C113.297 16.2168 112.963 16.1035 112.521 16.1035C112.135 16.1035 111.811 16.2012 111.549 16.3965C111.287 16.5918 111.156 16.8281 111.156 17.1055H110.066C110.066 16.7891 110.178 16.4844 110.4 16.1914C110.627 15.8945 110.932 15.6602 111.314 15.4883C111.701 15.3164 112.125 15.2305 112.586 15.2305C113.316 15.2305 113.889 15.4141 114.303 15.7812C114.717 16.1445 114.932 16.6465 114.947 17.2871V20.2051C114.947 20.7871 115.021 21.25 115.17 21.5938V21.6875H114.033ZM112.234 20.8613C112.574 20.8613 112.896 20.7734 113.201 20.5977C113.506 20.4219 113.727 20.1934 113.863 19.9121V18.6113H113.014C111.686 18.6113 111.021 19 111.021 19.7773C111.021 20.1172 111.135 20.3828 111.361 20.5742C111.588 20.7656 111.879 20.8613 112.234 20.8613Z" fill="#505050"/>
</svg>
