<svg width="56" height="26" viewBox="0 0 56 26" fill="none" xmlns="http://www.w3.org/2000/svg">
<path d="M2.5 1C2.5 0.447715 2.94772 0 3.5 0H54.5C55.0523 0 55.5 0.447715 55.5 1V25C55.5 25.5523 55.0523 26 54.5 26H4C3.44772 26 3 25.5523 3 25V15.0352C3 14.7008 2.8329 14.3886 2.5547 14.2031L1.1379 13.2586C0.57476 12.8832 0.539406 12.0685 1.0679 11.6457L2.12469 10.8002C2.36191 10.6105 2.5 10.3232 2.5 10.0194V1Z" fill="#F7F7F7"/>
<path d="M3.5 0.5H54.5C54.7761 0.5 55 0.723857 55 1V25C55 25.2761 54.7761 25.5 54.5 25.5H4C3.72386 25.5 3.5 25.2761 3.5 25V15.0352C3.5 14.5337 3.24935 14.0653 2.83205 13.7871L1.41525 12.8426C1.13368 12.6549 1.116 12.2475 1.38025 12.0361L2.43704 11.1907C2.79287 10.906 3 10.4751 3 10.0194V1C3 0.723858 3.22386 0.5 3.5 0.5Z" stroke="black" stroke-opacity="0.1"/>
<path opacity="0.8" d="M26.8828 10.6953C26.8828 11.1211 26.7695 11.5 26.543 11.832C26.3203 12.1641 26.0176 12.4238 25.6348 12.6113C26.0801 12.8027 26.4316 13.082 26.6895 13.4492C26.9512 13.8164 27.082 14.2324 27.082 14.6973C27.082 15.4355 26.832 16.0234 26.332 16.4609C25.8359 16.8984 25.1816 17.1172 24.3691 17.1172C23.5488 17.1172 22.8906 16.8984 22.3945 16.4609C21.9023 16.0195 21.6562 15.4316 21.6562 14.6973C21.6562 14.2363 21.7812 13.8203 22.0312 13.4492C22.2852 13.0781 22.6348 12.7969 23.0801 12.6055C22.7012 12.418 22.4023 12.1582 22.1836 11.8262C21.9648 11.4941 21.8555 11.1172 21.8555 10.6953C21.8555 9.97656 22.0859 9.40625 22.5469 8.98438C23.0078 8.5625 23.6152 8.35156 24.3691 8.35156C25.1191 8.35156 25.7246 8.5625 26.1855 8.98438C26.6504 9.40625 26.8828 9.97656 26.8828 10.6953ZM25.998 14.6738C25.998 14.1973 25.8457 13.8086 25.541 13.5078C25.2402 13.207 24.8457 13.0566 24.3574 13.0566C23.8691 13.0566 23.4766 13.2051 23.1797 13.502C22.8867 13.7988 22.7402 14.1895 22.7402 14.6738C22.7402 15.1582 22.8828 15.5391 23.168 15.8164C23.457 16.0938 23.8574 16.2324 24.3691 16.2324C24.877 16.2324 25.2754 16.0938 25.5645 15.8164C25.8535 15.5352 25.998 15.1543 25.998 14.6738ZM24.3691 9.24219C23.9434 9.24219 23.5977 9.375 23.332 9.64062C23.0703 9.90234 22.9395 10.2598 22.9395 10.7129C22.9395 11.1465 23.0684 11.498 23.3262 11.7676C23.5879 12.0332 23.9355 12.166 24.3691 12.166C24.8027 12.166 25.1484 12.0332 25.4062 11.7676C25.668 11.498 25.7988 11.1465 25.7988 10.7129C25.7988 10.2793 25.6641 9.92578 25.3945 9.65234C25.125 9.37891 24.7832 9.24219 24.3691 9.24219ZM33.7969 13.3613C33.7969 14.6309 33.5801 15.5742 33.1465 16.1914C32.7129 16.8086 32.0352 17.1172 31.1133 17.1172C30.2031 17.1172 29.5293 16.8164 29.0918 16.2148C28.6543 15.6094 28.4277 14.707 28.4121 13.5078V12.0605C28.4121 10.8066 28.6289 9.875 29.0625 9.26562C29.4961 8.65625 30.1758 8.35156 31.1016 8.35156C32.0195 8.35156 32.6953 8.64648 33.1289 9.23633C33.5625 9.82227 33.7852 10.7285 33.7969 11.9551V13.3613ZM32.7129 11.8789C32.7129 10.9609 32.584 10.293 32.3262 9.875C32.0684 9.45312 31.6602 9.24219 31.1016 9.24219C30.5469 9.24219 30.1426 9.45117 29.8887 9.86914C29.6348 10.2871 29.5039 10.9297 29.4961 11.7969V13.5312C29.4961 14.4531 29.6289 15.1348 29.8945 15.5762C30.1641 16.0137 30.5703 16.2324 31.1133 16.2324C31.6484 16.2324 32.0449 16.0254 32.3027 15.6113C32.5645 15.1973 32.7012 14.5449 32.7129 13.6543V11.8789ZM37.0664 14.0645L36.3867 14.7734V17H35.3027V8H36.3867V13.4434L36.9668 12.7461L38.9414 10.6602H40.2598L37.793 13.3086L40.5469 17H39.2754L37.0664 14.0645Z" fill="#BABABE"/>
</svg>
