<svg width="83" height="31" viewBox="0 0 83 31" fill="none" xmlns="http://www.w3.org/2000/svg">
<rect width="83" height="31" rx="15.5" fill="#008FEE"/>
<path d="M12.2666 17.7188V10.6094H14.5908C15.3623 10.6094 15.9417 10.7689 16.3291 11.0879C16.7197 11.4069 16.915 11.8789 16.915 12.5039C16.915 12.8359 16.8206 13.1305 16.6318 13.3877C16.443 13.6416 16.1859 13.8385 15.8604 13.9785C16.2445 14.0859 16.5472 14.291 16.7686 14.5938C16.9932 14.8932 17.1055 15.2513 17.1055 15.668C17.1055 16.306 16.8988 16.8073 16.4854 17.1719C16.0719 17.5365 15.4876 17.7188 14.7324 17.7188H12.2666ZM13.2041 14.3936V16.9521H14.752C15.1882 16.9521 15.5316 16.8398 15.7822 16.6152C16.0361 16.3874 16.1631 16.0749 16.1631 15.6777C16.1631 14.8216 15.6976 14.3936 14.7666 14.3936H13.2041ZM13.2041 13.6416H14.6201C15.0303 13.6416 15.3574 13.5391 15.6016 13.334C15.849 13.1289 15.9727 12.8506 15.9727 12.499C15.9727 12.1084 15.8587 11.8252 15.6309 11.6494C15.403 11.4704 15.0563 11.3809 14.5908 11.3809H13.2041V13.6416ZM20.5479 17.8164C19.8317 17.8164 19.249 17.582 18.7998 17.1133C18.3506 16.6413 18.126 16.0114 18.126 15.2236V15.0576C18.126 14.5335 18.2253 14.0664 18.4238 13.6562C18.6257 13.2428 18.9056 12.9206 19.2637 12.6895C19.625 12.4551 20.0156 12.3379 20.4355 12.3379C21.1224 12.3379 21.6562 12.5641 22.0371 13.0166C22.418 13.4691 22.6084 14.1169 22.6084 14.96V15.3359H19.0293C19.0423 15.8568 19.1937 16.2783 19.4834 16.6006C19.7764 16.9196 20.1475 17.0791 20.5967 17.0791C20.9157 17.0791 21.1859 17.014 21.4072 16.8838C21.6286 16.7536 21.8223 16.5811 21.9883 16.3662L22.54 16.7959C22.0973 17.4762 21.4333 17.8164 20.5479 17.8164ZM20.4355 13.0801C20.071 13.0801 19.765 13.2135 19.5176 13.4805C19.2702 13.7441 19.1172 14.1152 19.0586 14.5938H21.7051V14.5254C21.679 14.0664 21.5553 13.7116 21.334 13.4609C21.1126 13.207 20.8132 13.0801 20.4355 13.0801ZM26.2119 13.2461C26.0752 13.2233 25.9271 13.2119 25.7676 13.2119C25.1751 13.2119 24.7731 13.4642 24.5615 13.9688V17.7188H23.6582V12.4355H24.5371L24.5518 13.0459C24.848 12.5739 25.2679 12.3379 25.8115 12.3379C25.9873 12.3379 26.1208 12.3607 26.2119 12.4062V13.2461ZM28.0283 17.7188H27.125V10.2188H28.0283V17.7188ZM32.7402 17.7188C32.6882 17.6146 32.6458 17.429 32.6133 17.1621C32.1934 17.5983 31.6921 17.8164 31.1094 17.8164C30.5885 17.8164 30.1605 17.6699 29.8252 17.377C29.4932 17.0807 29.3271 16.7064 29.3271 16.2539C29.3271 15.7038 29.5355 15.2773 29.9521 14.9746C30.3721 14.6686 30.9613 14.5156 31.7197 14.5156H32.5986V14.1006C32.5986 13.7848 32.5042 13.5342 32.3154 13.3486C32.1266 13.1598 31.8483 13.0654 31.4805 13.0654C31.1582 13.0654 30.888 13.1468 30.6699 13.3096C30.4518 13.4723 30.3428 13.6693 30.3428 13.9004H29.4346C29.4346 13.6367 29.5273 13.3828 29.7129 13.1387C29.9017 12.8913 30.1556 12.696 30.4746 12.5527C30.7969 12.4095 31.1501 12.3379 31.5342 12.3379C32.1429 12.3379 32.6198 12.4909 32.9648 12.7969C33.3099 13.0996 33.4889 13.5179 33.502 14.0518V16.4834C33.502 16.9684 33.5638 17.3542 33.6875 17.6406V17.7188H32.7402ZM31.2412 17.0303C31.5244 17.0303 31.793 16.957 32.0469 16.8105C32.3008 16.6641 32.4847 16.4736 32.5986 16.2393V15.1553H31.8906C30.7839 15.1553 30.2305 15.4792 30.2305 16.127C30.2305 16.4102 30.3249 16.6315 30.5137 16.791C30.7025 16.9505 30.945 17.0303 31.2412 17.0303ZM35.7725 12.4355L35.8018 13.0996C36.2054 12.5918 36.7327 12.3379 37.3838 12.3379C38.5003 12.3379 39.0635 12.9678 39.0732 14.2275V17.7188H38.1699V14.2227C38.1667 13.8418 38.0788 13.5602 37.9062 13.3779C37.737 13.1956 37.4717 13.1045 37.1104 13.1045C36.8174 13.1045 36.5602 13.1826 36.3389 13.3389C36.1175 13.4951 35.945 13.7002 35.8213 13.9541V17.7188H34.918V12.4355H35.7725ZM40.2207 15.0332C40.2207 14.2096 40.4111 13.5553 40.792 13.0703C41.1729 12.582 41.6774 12.3379 42.3057 12.3379C42.9502 12.3379 43.4531 12.5658 43.8145 13.0215L43.8584 12.4355H44.6836V17.5918C44.6836 18.2754 44.4801 18.8141 44.0732 19.208C43.6696 19.6019 43.126 19.7988 42.4424 19.7988C42.0615 19.7988 41.6888 19.7174 41.3242 19.5547C40.9596 19.3919 40.6813 19.1689 40.4893 18.8857L40.958 18.3438C41.3454 18.8223 41.819 19.0615 42.3789 19.0615C42.8184 19.0615 43.1602 18.9378 43.4043 18.6904C43.6517 18.443 43.7754 18.0947 43.7754 17.6455V17.1914C43.4141 17.6081 42.9209 17.8164 42.2959 17.8164C41.6774 17.8164 41.1761 17.5674 40.792 17.0693C40.4111 16.5713 40.2207 15.8926 40.2207 15.0332ZM41.1289 15.1357C41.1289 15.7314 41.251 16.2002 41.4951 16.542C41.7393 16.8805 42.0811 17.0498 42.5205 17.0498C43.0902 17.0498 43.5085 16.791 43.7754 16.2734V13.8613C43.4987 13.3568 43.0837 13.1045 42.5303 13.1045C42.0908 13.1045 41.7474 13.2754 41.5 13.6172C41.2526 13.959 41.1289 14.4652 41.1289 15.1357ZM45.8359 15.0332C45.8359 14.2096 46.0264 13.5553 46.4072 13.0703C46.7881 12.582 47.2926 12.3379 47.9209 12.3379C48.5654 12.3379 49.0684 12.5658 49.4297 13.0215L49.4736 12.4355H50.2988V17.5918C50.2988 18.2754 50.0954 18.8141 49.6885 19.208C49.2848 19.6019 48.7412 19.7988 48.0576 19.7988C47.6768 19.7988 47.304 19.7174 46.9395 19.5547C46.5749 19.3919 46.2965 19.1689 46.1045 18.8857L46.5732 18.3438C46.9606 18.8223 47.4342 19.0615 47.9941 19.0615C48.4336 19.0615 48.7754 18.9378 49.0195 18.6904C49.2669 18.443 49.3906 18.0947 49.3906 17.6455V17.1914C49.0293 17.6081 48.5361 17.8164 47.9111 17.8164C47.2926 17.8164 46.7913 17.5674 46.4072 17.0693C46.0264 16.5713 45.8359 15.8926 45.8359 15.0332ZM46.7441 15.1357C46.7441 15.7314 46.8662 16.2002 47.1104 16.542C47.3545 16.8805 47.6963 17.0498 48.1357 17.0498C48.7054 17.0498 49.1237 16.791 49.3906 16.2734V13.8613C49.1139 13.3568 48.6989 13.1045 48.1455 13.1045C47.7061 13.1045 47.3626 13.2754 47.1152 13.6172C46.8678 13.959 46.7441 14.4652 46.7441 15.1357ZM54.9277 17.7188C54.8757 17.6146 54.8333 17.429 54.8008 17.1621C54.3809 17.5983 53.8796 17.8164 53.2969 17.8164C52.776 17.8164 52.348 17.6699 52.0127 17.377C51.6807 17.0807 51.5146 16.7064 51.5146 16.2539C51.5146 15.7038 51.723 15.2773 52.1396 14.9746C52.5596 14.6686 53.1488 14.5156 53.9072 14.5156H54.7861V14.1006C54.7861 13.7848 54.6917 13.5342 54.5029 13.3486C54.3141 13.1598 54.0358 13.0654 53.668 13.0654C53.3457 13.0654 53.0755 13.1468 52.8574 13.3096C52.6393 13.4723 52.5303 13.6693 52.5303 13.9004H51.6221C51.6221 13.6367 51.7148 13.3828 51.9004 13.1387C52.0892 12.8913 52.3431 12.696 52.6621 12.5527C52.9844 12.4095 53.3376 12.3379 53.7217 12.3379C54.3304 12.3379 54.8073 12.4909 55.1523 12.7969C55.4974 13.0996 55.6764 13.5179 55.6895 14.0518V16.4834C55.6895 16.9684 55.7513 17.3542 55.875 17.6406V17.7188H54.9277ZM53.4287 17.0303C53.7119 17.0303 53.9805 16.957 54.2344 16.8105C54.4883 16.6641 54.6722 16.4736 54.7861 16.2393V15.1553H54.0781C52.9714 15.1553 52.418 15.4792 52.418 16.127C52.418 16.4102 52.5124 16.6315 52.7012 16.791C52.89 16.9505 53.1325 17.0303 53.4287 17.0303ZM57.96 12.4355L57.9893 13.0996C58.3929 12.5918 58.9202 12.3379 59.5713 12.3379C60.6878 12.3379 61.251 12.9678 61.2607 14.2275V17.7188H60.3574V14.2227C60.3542 13.8418 60.2663 13.5602 60.0938 13.3779C59.9245 13.1956 59.6592 13.1045 59.2979 13.1045C59.0049 13.1045 58.7477 13.1826 58.5264 13.3389C58.305 13.4951 58.1325 13.7002 58.0088 13.9541V17.7188H57.1055V12.4355H57.96ZM65.8848 17.7188C65.8327 17.6146 65.7904 17.429 65.7578 17.1621C65.3379 17.5983 64.8366 17.8164 64.2539 17.8164C63.7331 17.8164 63.305 17.6699 62.9697 17.377C62.6377 17.0807 62.4717 16.7064 62.4717 16.2539C62.4717 15.7038 62.68 15.2773 63.0967 14.9746C63.5166 14.6686 64.1058 14.5156 64.8643 14.5156H65.7432V14.1006C65.7432 13.7848 65.6488 13.5342 65.46 13.3486C65.2712 13.1598 64.9928 13.0654 64.625 13.0654C64.3027 13.0654 64.0326 13.1468 63.8145 13.3096C63.5964 13.4723 63.4873 13.6693 63.4873 13.9004H62.5791C62.5791 13.6367 62.6719 13.3828 62.8574 13.1387C63.0462 12.8913 63.3001 12.696 63.6191 12.5527C63.9414 12.4095 64.2946 12.3379 64.6787 12.3379C65.2874 12.3379 65.7643 12.4909 66.1094 12.7969C66.4544 13.0996 66.6335 13.5179 66.6465 14.0518V16.4834C66.6465 16.9684 66.7083 17.3542 66.832 17.6406V17.7188H65.8848ZM64.3857 17.0303C64.6689 17.0303 64.9375 16.957 65.1914 16.8105C65.4453 16.6641 65.6292 16.4736 65.7432 16.2393V15.1553H65.0352C63.9284 15.1553 63.375 15.4792 63.375 16.127C63.375 16.4102 63.4694 16.6315 63.6582 16.791C63.847 16.9505 64.0895 17.0303 64.3857 17.0303ZM68.917 12.4355L68.9463 13.0996C69.3499 12.5918 69.8773 12.3379 70.5283 12.3379C71.6449 12.3379 72.208 12.9678 72.2178 14.2275V17.7188H71.3145V14.2227C71.3112 13.8418 71.2233 13.5602 71.0508 13.3779C70.8815 13.1956 70.6162 13.1045 70.2549 13.1045C69.9619 13.1045 69.7048 13.1826 69.4834 13.3389C69.262 13.4951 69.0895 13.7002 68.9658 13.9541V17.7188H68.0625V12.4355H68.917Z" fill="#F9FCFF"/>
</svg>
