<svg width="24" height="25" viewBox="0 0 24 25" fill="none" xmlns="http://www.w3.org/2000/svg">
<path d="M0 0H24V25L12 18L0 25V0Z" fill="#0090EF"/>
<path d="M7.35626 4H11.2847C11.3794 4.00002 11.4702 4.04143 11.5372 4.11511L16.8942 10.0078C17.0338 10.1611 17.0339 10.4099 16.8945 10.5634C16.8944 10.5635 16.8943 10.5636 16.8942 10.5637L12.9657 14.885C12.8263 15.0383 12.6002 15.0383 12.4608 14.885L7.10377 8.99228C7.03671 8.91853 6.99906 8.81847 6.99912 8.71415V4.39285C6.99912 4.17588 7.15902 4 7.35626 4ZM9.49906 7.53562C9.89353 7.53562 10.2133 7.18385 10.2133 6.74993C10.2133 6.31601 9.89353 5.96425 9.49906 5.96425C9.10459 5.96425 8.7848 6.31601 8.7848 6.74993C8.7848 7.18385 9.10459 7.53562 9.49906 7.53562Z" fill="white"/>
</svg>
